<?xml version="1.0" encoding="utf-8"?>
<!-- Generator: Adobe Illustrator 19.2.1, SVG Export Plug-In . SVG Version: 6.00 Build 0)  -->
<svg version="1.1" id="layer" xmlns="http://www.w3.org/2000/svg" xmlns:xlink="http://www.w3.org/1999/xlink" x="0px" y="0px"
	 viewBox="0 0 652 652" style="enable-background:new 0 0 652 652;" xml:space="preserve">
<style type="text/css">
	.st0{fill:#CF0A2C;}
	.st1{fill:#9D162E;}
</style>
<path class="st0" d="M453,403h-30.6l52.2-76.6l-52.2-76.6H453l52.2,76.6L453,403z M584.5,241h-52.2L495,295.7L457.7,241h-52.2
	l58.2,85.5l-58.2,85.5h52.2l37.3-54.7l37.3,54.7h52.2l-58.2-85.5L584.5,241z"/>
<polygon class="st0" points="448.3,258.8 439.2,258.8 485.3,326.4 439.2,394.1 448.3,394.1 494.4,326.4 "/>
<polygon class="st1" points="515.9,326.4 515.9,387.9 495,357.2 "/>
<path class="st0" d="M26.7,349V241H67v108c0,18.9,9.2,25.6,21.4,25.6c11.9,0,21.4-6.7,21.4-25.6V241h40.3v108
	c0,18.9,9.4,25.6,21.4,25.6c12.2,0,21.4-6.7,21.4-25.6V241h40.3v108c0,43.5-25.4,62.9-58.2,62.9c-19.6,0-35.3-7.7-45-22.4
	c-9.7,14.7-25.4,22.4-45,22.4C52.1,411.9,26.7,392.5,26.7,349 M335.2,279.5c-19,0.1-35.4,11.5-42.7,27.9l85.6-0.3
	C370.7,290.8,354.3,279.4,335.2,279.5 M290.5,340.3c5.9,19.2,23.9,33.2,45,33.1c12.1,0,23.1-4.7,31.4-12.3l46.6-0.2
	c-13.2,29.9-43.1,50.9-77.9,51c-47.1,0.2-85.6-38-85.8-85.2c-0.2-47.1,38-85.6,85.2-85.8c47.1-0.2,85.6,38,85.8,85.2
	c0,4.7-0.4,9.2-1.1,13.7L290.5,340.3z M603.1,241h-16.7v3.7h5.9V261h4.8v-16.3h6V241z M611.4,241l4.5,13.9l4.5-13.9h6.4v20h-4.8
	v-4.7l0.5-9.6l-4.8,14.3h-3.2l-4.9-14.3l0.5,9.6v4.7h-4.8v-20H611.4z"/>
</svg>
